<?xml version="1.0" encoding="utf-8"?>
<!-- Generator: Adobe Illustrator 26.1.0, SVG Export Plug-In . SVG Version: 6.00 Build 0)  -->
<svg version="1.1" id="Layer_1" xmlns="http://www.w3.org/2000/svg" xmlns:xlink="http://www.w3.org/1999/xlink" x="0px" y="0px"
	 viewBox="0 0 514 611.4" style="enable-background:new 0 0 514 611.4;" xml:space="preserve">
<style type="text/css">
	.st0{fill:#3F1100;}
	.st1{fill:#991B1B;}
	.st2{fill:#FFFFFF;}
	.st3{fill:#FF6584;}
	.st4{fill:#E6E6E6;}
</style>
<circle class="st0" cx="129" cy="112.4" r="57"/>
<circle class="st0" cx="25.6" cy="301.1" r="22.7"/>
<circle class="st0" cx="456" cy="131.4" r="57"/>
<path class="st1" d="M457,72.4c-22.4,0-42.7,13.1-51.9,33.4c23.5-20.9,59.5-18.9,80.5,4.6c15,16.8,18.7,40.9,9.3,61.5
	c23.5-20.9,25.6-56.9,4.7-80.5C488.8,79.4,473.3,72.4,457,72.4z"/>
<path class="st1" d="M128,53.4c22.4,0,42.7,13.1,51.9,33.4c-23.5-20.9-59.5-18.9-80.5,4.6c-15,16.8-18.7,40.9-9.3,61.5
	C66.6,132.1,64.5,96,85.4,72.5C96.2,60.4,111.7,53.4,128,53.4z"/>
<path class="st0" d="M294,396.4c0.1,81.3-65.7,147.2-147,147.2S-0.2,477.9-0.2,396.7c-0.1-81.3,65.7-147.2,147-147.2
	c0.1,0,0.2,0,0.2,0c80.9-0.3,146.7,65.1,147,146C294,395.8,294,396.1,294,396.4z"/>
<path class="st1" d="M294,396.4c0,21-4.5,41.8-13.2,61C184.6,456.1,107.7,377.1,109,281c0.1-9.1,1-18.2,2.5-27.2
	c78.9-19.5,158.6,28.6,178.2,107.5C292.5,372.7,294,384.6,294,396.4z"/>
<circle class="st0" cx="283" cy="261.4" r="174"/>
<path class="st2" d="M325.3,267.4c18.8-25.2,54.4-30.5,79.6-11.8c18.8-25.2,13.6-61-11.7-79.8s-61-13.6-79.8,11.7
	c-18.8,25.2-13.6,61,11.7,79.8C325.2,267.3,325.2,267.4,325.3,267.4z"/>
<path class="st2" d="M192.3,278.4c18.8-25.2,54.4-30.5,79.6-11.8c18.8-25.2,13.6-61-11.7-79.8s-61-13.6-79.8,11.7
	c-18.8,25.2-13.6,61,11.7,79.8C192.2,278.3,192.2,278.4,192.3,278.4z"/>
<circle class="st0" cx="230" cy="221.4" r="21"/>
<circle class="st0" cx="366" cy="205.4" r="21"/>
<circle class="st3" cx="296" cy="267.4" r="11"/>
<path class="st0" d="M131,578.8v-48.4h-16v48.4c-9.6,3.4-16,12.5-16,22.6v0h48v0C147,591.3,140.6,582.2,131,578.8z"/>
<path class="st0" d="M190,578.8v-48.4h-16v48.4c-9.6,3.4-16,12.5-16,22.6v0h48v0C206,591.3,199.6,582.2,190,578.8z"/>
<path class="st0" d="M211.9,113.4c-7.2-11.7-12.1-25.4-10.6-39s10.5-27,23.6-30.9s29.5,4.2,32,17.7c13.2-22.8,34.1-40.2,58.9-49
	c11.5-4.1,26.8-5,33.5,5.3c3.3,5.1,3.6,11.9,8.1,16.1c6.9,6.5,18,1.9,27.5,2.5c13.3,0.8,24,13.2,25.7,26.4s-4.2,26.5-12.8,36.6
	s-19.9,17.7-31,25"/>
<path class="st1" d="M315.1,307.7c0.7-0.8,1.5-1.5,2.2-2.2c0.3-0.3,0.7-0.6,1-0.9c0.2-0.2,0.4-0.4,0.7-0.5c0.4-0.3,0.5-0.4,0,0
	c1.7-1.3,3.5-2.4,5.4-3.4c0.9-0.5,1.7-0.9,2.6-1.3c0.2-0.1,0.4-0.2,0.6-0.3c-0.9,0.4-0.2,0.1,0,0c0.5-0.2,1.1-0.4,1.6-0.6
	c2-0.7,4.1-1.3,6.2-1.7c1-0.2,1.9-0.4,2.9-0.5c0.7-0.1-0.8,0.1-0.2,0c0.3,0,0.6-0.1,0.9-0.1c0.6-0.1,1.2-0.1,1.7-0.1
	c2.1-0.1,4.2-0.1,6.2,0c1,0.1,2.1,0.2,3.1,0.3c-1-0.1,0.2,0,0.5,0.1c0.6,0.1,1.1,0.2,1.7,0.3c2,0.4,4,1,6,1.6c0.5,0.2,1,0.3,1.5,0.5
	c0.3,0.1,0.5,0.2,0.8,0.3c-0.1-0.1-0.9-0.4-0.1,0c0.9,0.4,1.9,0.9,2.8,1.4c1.9,1,3.7,2.2,5.4,3.4c0.5,0.4-0.6-0.5-0.1-0.1
	c0.2,0.2,0.4,0.4,0.7,0.5c0.4,0.3,0.7,0.6,1,0.9c0.9,0.8,1.7,1.6,2.5,2.5c0.7,0.8,1.5,1.6,2.1,2.4c0,0,0.8,1,0.4,0.4
	c-0.3-0.4,0.1,0.2,0.2,0.3c0.4,0.6,0.8,1.1,1.2,1.7c1.3,1.9,2.4,3.8,3.4,5.8c0.5,1,0.9,1.9,1.4,2.9c0.1,0.2,0.4,1,0.1,0.1
	c0.1,0.2,0.2,0.5,0.3,0.7c0.2,0.6,0.5,1.2,0.7,1.8c1.6,4.4,2.8,8.9,3.6,13.4c0.2,1.2,0.4,2.3,0.6,3.5c0.1,0.5,0.2,1,0.2,1.6
	c0,0,0.2,1.3,0.1,0.6c-0.1-0.6,0.1,0.5,0.1,0.6c0.3,2.4,0.5,4.9,0.7,7.3c0.4,4.8,0.6,9.6,0.7,14.4c0.4,12.2,0.7,24.4,1,36.6
	l2.1,74.8l2.1,74.8l0.3,9.3c0,2.5,2,4.5,4.5,4.5s4.5-2,4.5-4.5l-2.2-76.8l-2.1-76.3l-1.1-38.4c-0.3-10.3-0.7-20.6-2.3-30.7
	c-2.9-18.8-11.4-38.2-29.5-46.8c-16.9-8-37.8-6.1-52.7,5.5c-1.6,1.3-3.2,2.7-4.6,4.2c-1.8,1.8-1.8,4.6,0,6.4
	S313.4,309.5,315.1,307.7L315.1,307.7z"/>
<path class="st4" d="M349,449.4c-2.8,0-5,2.2-5,5l10,151.9c0,2.8,2.2,5,5,5.1c0,0,0,0,0,0h82c2.8,0,5-2.2,5-5l10-152.1
	c0-2.7-2.3-4.9-5-4.9H349z"/>
<path class="st4" d="M387,480.4c-1.1,0-2,0.9-2,2v11c0,1.1,0.9,2,2,2h17c1.1,0,2-0.9,2-2v-11c0-1.1-0.9-2-2-2H387z"/>
<path class="st1" d="M356.9,456.9c-2.8,0-5,2.2-5,5c0,0.1,0,0.2,0,0.3l9.2,137c0.2,2.6,2.4,4.7,5,4.7h67.8c2.6,0,4.8-2,5-4.7
	l9.2-137c0.2-2.8-1.9-5.1-4.7-5.3c-0.1,0-0.2,0-0.3,0H356.9z"/>
<path class="st4" d="M406,509.4c-1.1,0-2,0.9-2,2v11c0,1.1,0.9,2,2,2h17c1.1,0,2-0.9,2-2v-11c0-1.1-0.9-2-2-2H406z"/>
<path class="st4" d="M388,533.4c-1.1,0-2,0.9-2,2v11c0,1.1,0.9,2,2,2h17c1.1,0,2-0.9,2-2v-11c0-1.1-0.9-2-2-2H388z"/>
<polygon class="st0" points="439.1,603.9 360.7,603.9 358.7,565.9 441.6,558.2 "/>
<path class="st1" d="M65,475.6c5.2,1.7,8.9,6.2,11.9,10.5c3.1,4.5,6,9.3,10.3,12.8c3.6,3.2,8.5,4.6,13.3,4c4.7-0.7,8.7-4,9.4-8.9
	c0.9-6.4-3.5-12.3-7.5-16.9l-1.1,2.6c6.3,0.7,11.7,4.2,17.4,6.5c5.5,2.2,12,3.4,17.5,0.5c4.2-2.2,6.8-6.6,7.7-11.2
	c0.9-5,0.1-10.1-2.2-14.6c-2.9-6-7.7-10.8-12.3-15.4l-1.5,2.5c6.9,1,14.6,2,20.6-2.4c2.4-1.7,4.1-4.2,4.8-7c0.6-3.1,0.1-6.4-1.5-9.2
	c-3.1-6.1-9.1-10.5-14.4-14.6c-12.4-9.6-25.9-17.8-40.2-24.4c-1.7-0.8-3.3,1.8-1.5,2.6c12.2,5.7,23.9,12.5,34.8,20.4
	c5.3,3.8,10.8,7.7,15.2,12.5c3.7,4.1,7.1,10.3,3,15.4c-4.8,5.9-13.4,4.8-20,3.8c-0.8-0.2-1.6,0.3-1.8,1.1c-0.1,0.5,0,1,0.4,1.4
	c6.9,6.9,15.1,15.2,13.9,25.9c-0.5,4-2.4,8.2-6,10.3c-4.9,2.9-11,1.4-15.9-0.6c-6-2.4-11.5-5.9-18-6.6c-1.4-0.2-1.8,1.7-1.1,2.6
	c3.2,3.7,7,8.5,6.7,13.6c-0.2,4.3-4,6.9-8,7.1C88.8,500.7,83.6,490,78.4,483c-3.3-4.4-7.2-8.5-12.6-10.3C64,472.1,63.2,475,65,475.6
	L65,475.6z"/>
<polygon class="st2" points="304.9,155.8 360.8,122.2 375,137.5 308.1,163.6 "/>
<polygon class="st2" points="236.5,138.4 173.3,154.2 174.1,175.1 239.8,146.2 "/>
</svg>
