<?xml version="1.0" encoding="utf-8"?>
<!-- Generator: Adobe Illustrator 26.1.0, SVG Export Plug-In . SVG Version: 6.00 Build 0)  -->
<svg version="1.1" id="Layer_1" xmlns="http://www.w3.org/2000/svg" xmlns:xlink="http://www.w3.org/1999/xlink" x="0px" y="0px"
	 viewBox="0 0 514 611.4" style="enable-background:new 0 0 514 611.4;" xml:space="preserve">
<style type="text/css">
	.st0{fill:#3F1100;}
	.st1{fill:#991B1B;}
	.st2{fill:#FFFFFF;}
	.st3{fill:#FF6584;}
	.st4{fill:#E6E6E6;}
</style>
<circle class="st0" cx="-490.9" cy="107.7" r="57"/>
<ellipse transform="matrix(0.9997 -2.378931e-02 2.378931e-02 0.9997 -7.2203 -14.054)" class="st0" cx="-594.3" cy="296.4" rx="22.7" ry="22.7"/>
<circle class="st0" cx="-163.9" cy="126.7" r="57"/>
<path class="st1" d="M-162.9,67.7c-22.4,0-42.7,13.1-51.9,33.4c23.5-20.9,59.5-18.9,80.5,4.6c15,16.8,18.7,40.9,9.3,61.5
	c23.5-20.9,25.6-56.9,4.7-80.5C-131.1,74.7-146.6,67.7-162.9,67.7z"/>
<path class="st1" d="M-491.9,48.7c22.4,0,42.7,13.1,51.9,33.4c-23.5-20.9-59.5-18.9-80.5,4.6c-15,16.8-18.7,40.9-9.3,61.5
	c-23.5-20.8-25.6-56.9-4.7-80.4C-523.7,55.7-508.2,48.7-491.9,48.7z"/>
<path class="st0" d="M-325.9,391.7c0.1,81.3-65.7,147.2-147,147.2S-620.1,473.2-620.1,392c-0.1-81.3,65.7-147.2,147-147.2
	c0.1,0,0.2,0,0.2,0c80.9-0.3,146.7,65.1,147,146C-325.9,391.1-325.9,391.4-325.9,391.7z"/>
<path class="st1" d="M-325.9,391.7c0,21-4.5,41.8-13.2,61c-96.2-1.3-173.1-80.3-171.8-176.4c0.1-9.1,1-18.2,2.5-27.2
	c78.9-19.5,158.6,28.6,178.2,107.5C-327.4,368-325.9,379.9-325.9,391.7z"/>
<circle class="st0" cx="-336.9" cy="256.7" r="174"/>
<path class="st2" d="M-294.6,262.7c18.8-25.2,54.4-30.5,79.6-11.8c18.8-25.2,13.6-61-11.7-79.8s-61-13.6-79.8,11.7
	c-18.8,25.2-13.6,61,11.7,79.8C-294.7,262.6-294.7,262.7-294.6,262.7z"/>
<path class="st2" d="M-427.6,273.7c18.8-25.2,54.4-30.5,79.6-11.8c18.8-25.2,13.6-61-11.7-79.8s-61-13.6-79.8,11.7
	c-18.8,25.2-13.6,61,11.7,79.8C-427.7,273.6-427.7,273.7-427.6,273.7z"/>
<circle class="st0" cx="-389.9" cy="216.7" r="21"/>
<circle class="st0" cx="-253.9" cy="200.7" r="21"/>
<circle class="st3" cx="-323.9" cy="262.7" r="11"/>
<path class="st0" d="M-488.9,574.1v-48.4h-16v48.4c-9.6,3.4-16,12.5-16,22.6l0,0h48l0,0C-472.9,586.6-479.3,577.5-488.9,574.1z"/>
<path class="st0" d="M-429.9,574.1v-48.4h-16v48.4c-9.6,3.4-16,12.5-16,22.6l0,0h48l0,0C-413.9,586.6-420.3,577.5-429.9,574.1z"/>
<path class="st0" d="M-408,108.7c-7.2-11.7-12.1-25.4-10.6-39s10.5-27,23.6-30.9s29.5,4.2,32,17.7c13.2-22.8,34.1-40.2,58.9-49
	c11.5-4.1,26.8-5,33.5,5.3c3.3,5.1,3.6,11.9,8.1,16.1c6.9,6.5,18,1.9,27.5,2.5c13.3,0.8,24,13.2,25.7,26.4s-4.2,26.5-12.8,36.6
	s-19.9,17.7-31,25"/>
<path class="st1" d="M-304.8,303c0.7-0.8,1.5-1.5,2.2-2.2c0.3-0.3,0.7-0.6,1-0.9c0.2-0.2,0.4-0.4,0.7-0.5c0.4-0.3,0.5-0.4,0,0
	c1.7-1.3,3.5-2.4,5.4-3.4c0.9-0.5,1.7-0.9,2.6-1.3c0.2-0.1,0.4-0.2,0.6-0.3c-0.9,0.4-0.2,0.1,0,0c0.5-0.2,1.1-0.4,1.6-0.6
	c2-0.7,4.1-1.3,6.2-1.7c1-0.2,1.9-0.4,2.9-0.5c0.7-0.1-0.8,0.1-0.2,0c0.3,0,0.6-0.1,0.9-0.1c0.6-0.1,1.2-0.1,1.7-0.1
	c2.1-0.1,4.2-0.1,6.2,0c1,0.1,2.1,0.2,3.1,0.3c-1-0.1,0.2,0,0.5,0.1c0.6,0.1,1.1,0.2,1.7,0.3c2,0.4,4,1,6,1.6c0.5,0.2,1,0.3,1.5,0.5
	c0.3,0.1,0.5,0.2,0.8,0.3c-0.1-0.1-0.9-0.4-0.1,0c0.9,0.4,1.9,0.9,2.8,1.4c1.9,1,3.7,2.2,5.4,3.4c0.5,0.4-0.6-0.5-0.1-0.1
	c0.2,0.2,0.4,0.4,0.7,0.5c0.4,0.3,0.7,0.6,1,0.9c0.9,0.8,1.7,1.6,2.5,2.5c0.7,0.8,1.5,1.6,2.1,2.4c0,0,0.8,1,0.4,0.4
	c-0.3-0.4,0.1,0.2,0.2,0.3c0.4,0.6,0.8,1.1,1.2,1.7c1.3,1.9,2.4,3.8,3.4,5.8c0.5,1,0.9,1.9,1.4,2.9c0.1,0.2,0.4,1,0.1,0.1
	c0.1,0.2,0.2,0.5,0.3,0.7c0.2,0.6,0.5,1.2,0.7,1.8c1.6,4.4,2.8,8.9,3.6,13.4c0.2,1.2,0.4,2.3,0.6,3.5c0.1,0.5,0.2,1,0.2,1.6
	c0,0,0.2,1.3,0.1,0.6c-0.1-0.6,0.1,0.5,0.1,0.6c0.3,2.4,0.5,4.9,0.7,7.3c0.4,4.8,0.6,9.6,0.7,14.4c0.4,12.2,0.7,24.4,1,36.6
	l2.1,74.8l2.1,74.8l0.3,9.3c0,2.5,2,4.5,4.5,4.5s4.5-2,4.5-4.5l-2.2-76.8l-2.1-76.3l-1.1-38.4c-0.3-10.3-0.7-20.6-2.3-30.7
	c-2.9-18.8-11.4-38.2-29.5-46.8c-16.9-8-37.8-6.1-52.7,5.5c-1.6,1.3-3.2,2.7-4.6,4.2c-1.8,1.8-1.8,4.6,0,6.4S-306.5,304.8-304.8,303
	L-304.8,303z"/>
<path class="st4" d="M-270.9,444.7c-2.8,0-5,2.2-5,5l10,151.9c0,2.8,2.2,5,5,5.1l0,0h82c2.8,0,5-2.2,5-5l10-152.1
	c0-2.7-2.3-4.9-5-4.9L-270.9,444.7L-270.9,444.7z"/>
<path class="st4" d="M-232.9,475.7c-1.1,0-2,0.9-2,2v11c0,1.1,0.9,2,2,2h17c1.1,0,2-0.9,2-2v-11c0-1.1-0.9-2-2-2H-232.9z"/>
<path class="st1" d="M-263,452.2c-2.8,0-5,2.2-5,5c0,0.1,0,0.2,0,0.3l9.2,137c0.2,2.6,2.4,4.7,5,4.7h67.8c2.6,0,4.8-2,5-4.7l9.2-137
	c0.2-2.8-1.9-5.1-4.7-5.3c-0.1,0-0.2,0-0.3,0L-263,452.2L-263,452.2z"/>
<path class="st4" d="M-213.9,504.7c-1.1,0-2,0.9-2,2v11c0,1.1,0.9,2,2,2h17c1.1,0,2-0.9,2-2v-11c0-1.1-0.9-2-2-2L-213.9,504.7
	L-213.9,504.7z"/>
<path class="st4" d="M-231.9,528.7c-1.1,0-2,0.9-2,2v11c0,1.1,0.9,2,2,2h17c1.1,0,2-0.9,2-2v-11c0-1.1-0.9-2-2-2H-231.9z"/>
<polygon class="st0" points="-180.8,599.2 -259.2,599.2 -261.2,561.2 -178.3,553.5 "/>
<path class="st1" d="M-554.9,470.9c5.2,1.7,8.9,6.2,11.9,10.5c3.1,4.5,6,9.3,10.3,12.8c3.6,3.2,8.5,4.6,13.3,4
	c4.7-0.7,8.7-4,9.4-8.9c0.9-6.4-3.5-12.3-7.5-16.9l-1.1,2.6c6.3,0.7,11.7,4.2,17.4,6.5c5.5,2.2,12,3.4,17.5,0.5
	c4.2-2.2,6.8-6.6,7.7-11.2c0.9-5,0.1-10.1-2.2-14.6c-2.9-6-7.7-10.8-12.3-15.4l-1.5,2.5c6.9,1,14.6,2,20.6-2.4
	c2.4-1.7,4.1-4.2,4.8-7c0.6-3.1,0.1-6.4-1.5-9.2c-3.1-6.1-9.1-10.5-14.4-14.6c-12.4-9.6-25.9-17.8-40.2-24.4
	c-1.7-0.8-3.3,1.8-1.5,2.6c12.2,5.7,23.9,12.5,34.8,20.4c5.3,3.8,10.8,7.7,15.2,12.5c3.7,4.1,7.1,10.3,3,15.4
	c-4.8,5.9-13.4,4.8-20,3.8c-0.8-0.2-1.6,0.3-1.8,1.1c-0.1,0.5,0,1,0.4,1.4c6.9,6.9,15.1,15.2,13.9,25.9c-0.5,4-2.4,8.2-6,10.3
	c-4.9,2.9-11,1.4-15.9-0.6c-6-2.4-11.5-5.9-18-6.6c-1.4-0.2-1.8,1.7-1.1,2.6c3.2,3.7,7,8.5,6.7,13.6c-0.2,4.3-4,6.9-8,7.1
	c-10.1,0.8-15.3-9.9-20.5-16.9c-3.3-4.4-7.2-8.5-12.6-10.3C-555.9,467.4-556.7,470.3-554.9,470.9L-554.9,470.9z"/>
<polygon class="st2" points="-315,151.1 -259.1,117.5 -244.9,132.8 -311.8,158.9 "/>
<polygon class="st2" points="-383.4,133.7 -446.6,149.5 -445.8,170.4 -380.1,141.5 "/>
<g>
	<g id="_x39_39_x2C__Lock_x2C__padlock_x2C__security_x2C__secure">
		<g id="XMLID_1468_">
			<polygon id="XMLID_1469_" class="st0" points="68,334.1 48.2,334.1 16,334.1 16,360.1 68,360.1 			"/>
			<path id="XMLID_1470_" class="st0" d="M259.6,423.6c-1,1-2.1,1-3.1,1c-2.1,0-4.2-1-5.2-3.1l-26-39.6c-2.1-3.1-1-7.3,2.1-9.4
				c3.1-2.1,7.3-1,9.4,2.1l22.9,33.3l54.1-34.4c-7.3-23.9-29.2-41.6-56.2-41.6c-32.3,0-58.3,26-58.3,58.3c0,32.3,26,58.3,58.3,58.3
				s58.3-26,58.3-58.3c0-1,0-2.1,0-3.1L259.6,423.6z"/>
			<rect id="XMLID_1471_" x="16" y="372.6" class="st0" width="52.1" height="26"/>
			<polygon id="XMLID_1472_" class="st0" points="68,450.7 16,450.7 16,476.7 48.2,476.7 68,476.7 			"/>
			<rect id="XMLID_1473_" x="16" y="412.2" class="st0" width="52.1" height="26"/>
			<path id="XMLID_1474_" class="st0" d="M432.4,484v-39.6v-39.6v-39.6v-39.6c0-3.1,3.1-6.2,6.2-6.2h19.8v-25H270
				c-3.1,0-6.2-3.1-6.2-6.2c0-3.1,3.1-6.2,6.2-6.2h188.4v-14.6c0-20.8-16.7-37.5-37.5-37.5h-75H166.9H92
				c-20.8,0-37.5,16.7-37.5,37.5v53.1h19.8c3.1,0,6.2,3.1,6.2,6.2v39.6v39.6v39.6v39.6c0,3.1-2.1,6.2-5.2,6.2h311.3
				c3.1,0,6.2,3.1,6.2,6.2c0,3.1-3.1,6.2-6.2,6.2l0,0H54.5v8.3c0,20.8,16.7,37.5,37.5,37.5h328c20.8,0,37.5-16.7,37.5-37.5v-21.9
				h-18.7C435.5,490.3,432.4,487.2,432.4,484z M122.2,302.9H92v-29.2h30.2V302.9z M166.9,302.9h-30.2v-29.2h30.2V302.9z
				 M182.5,273.7h30.2v30.2h-30.2V273.7z M363.7,359.1L327.3,382c0,3.1,1,7.3,1,10.4c0,39.6-32.3,71.8-71.8,71.8
				s-71.8-32.3-71.8-71.8c0-39.6,32.3-71.8,71.8-71.8c31.2,0,57.3,19.8,67.7,47.9l33.3-20.8c3.1-2.1,7.3-1,9.4,2.1
				C367.9,352.9,366.8,357,363.7,359.1z"/>
			<path id="XMLID_1480_" class="st0" d="M160.7,151.9c0-46.8,37.5-84.3,84.3-84.3h21.9c46.9,0,84.3,37.5,84.3,84.3v65.6h38.5
				c0-1-1-2.1-1-3.1v-51c0-73.9-60.4-133.3-133.3-133.3S122.2,90.5,122.2,163.4v51c0,1,0,2.1-1,3.1h38.5v-65.6H160.7z"/>
			<polygon id="XMLID_1481_" class="st0" points="464.7,334.1 444.9,334.1 444.9,360.1 497,360.1 497,334.1 			"/>
			<rect id="XMLID_1482_" x="444.9" y="372.6" class="st0" width="52.1" height="26"/>
			<rect id="XMLID_1483_" x="444.9" y="412.2" class="st0" width="52.1" height="26"/>
			<polygon id="XMLID_1484_" class="st0" points="444.9,476.7 464.7,476.7 497,476.7 497,450.7 444.9,450.7 			"/>
		</g>
	</g>
	<g id="Layer_1_00000132088375803908525320000002470849514017337525_">
	</g>
</g>
</svg>
